# AST/ASF file generated using VICON BodyLanguage
# -----------------------------------------------
:version 1.10
:name VICON
:units
  mass 1.0
  length 0.45
  angle deg
:documentation
   .ast/.asf automatically generated from VICON data using
   VICON BodyBuilder and BodyLanguage model FoxedUp or BRILLIANT.MOD
:root
   order TX TY TZ RX RY RZ
   axis XYZ
   position 0 0 0  
   orientation 0 0 0 
:bonedata
  begin
     id 1 
     name lhipjoint
     direction 0.535335 -0.74333 0.401095 
     length 2.04549 
     axis 0 0 0  XYZ
  end
  begin
     id 2 
     name lfemur
     direction 0.34202 -0.939693 0  
     length 6.95643  
     axis 0 0 20  XYZ
    dof rx ry rz
    limits (-160.0 20.0)
           (-70.0 70.0)
           (-60.0 70.0)
  end
  begin
     id 3 
     name ltibia
     direction 0.34192 -0.939729 0   
     length 5.55969   
     axis 0 0 20   XYZ
    dof rx
    limits (-10.0 170.0)
  end
  begin
     id 4 
     name lfoot
     direction 0.216943 -0.596046 0.773088   
     length 2.27918   
     axis -90 7.62852e-016 20   XYZ
    dof rx rz
    limits (-45.0 90.0)
           (-70.0 20.0)
  end
  begin
     id 5 
     name ltoes
     direction 1.53519e-011 -4.21748e-011 1   
     length 1.05562   
     axis -90 7.62852e-016 20   XYZ
    dof rx
    limits (-90.0 20.0)
  end
  begin
     id 6 
     name rhipjoint
     direction -0.576368 -0.719173 0.38806   
     length 2.1142  
     axis 0 0 0  XYZ 
  end
  begin
     id 7 
     name rfemur
     direction -0.34202 -0.939693 0   
     length 7.07928   
     axis 0 0 -20   XYZ
    dof rx ry rz
    limits (-160.0 20.0)
           (-70.0 70.0)
           (-70.0 60.0)
  end
  begin
     id 8 
     name rtibia
     direction -0.34202 -0.939693 0   
     length 5.79974   
     axis 0 0 -20   XYZ
    dof rx
    limits (-10.0 170.0)
 end
 begin
     id 9 
     name rfoot
     direction -0.189288 -0.520065 0.832888   
     length 2.42173  
     axis -90 -7.62852e-016 -20   XYZ
    dof rx rz
    limits (-45.0 90.0)
           (-20.0 70.0)
  end
  begin
     id 10 
     name rtoes
     direction -1.53574e-011 -4.21658e-011 1   
     length 1.14469   
     axis -90 -7.62852e-016 -20   XYZ
    dof rx
    limits (-90.0 20.0)
  end
  begin
     id 11 
     name lowerback
     direction -0.00135702 0.993803 0.111144   
     length 1.91308   
     axis 0 0 0   XYZ
    dof rx ry rz
    limits (-20.0 45.0)
           (-30.0 30.0)
           (-30.0 30.0)
  end
  begin
     id 12 
     name upperback
     direction -0.0056745 0.999813 0.0184631   
     length 1.9212   
     axis 0 0 0   XYZ
    dof rx ry rz
    limits (-20.0 45.0)
           (-30.0 30.0)
           (-30.0 30.0)
  end
  begin
     id 13 
     name thorax
     direction -0.00733434 0.999426 -0.0330788   
     length 1.94196   
     axis 0 0 0   XYZ
    dof rx ry rz
    limits (-20.0 45.0)
           (-30.0 30.0)
           (-30.0 30.0)
  end
  begin
     id 14 
     name lowerneck
     direction 0.0563074 0.996944 -0.0541571   
     length 2.34257   
     axis 0 0 0   XYZ
    dof rx ry rz
    limits (-20.0 45.0)
           (-30.0 30.0)
           (-30.0 30.0)
  end
  begin
     id 15 
     name upperneck
     direction -0.0544519 0.976166 -0.210085   
     length 2.32506   
     axis 0 0 0   XYZ
    dof rx ry rz
    limits (-20.0 45.0)
           (-30.0 30.0)
           (-30.0 30.0)
  end
  begin
     id 16
     name head
     direction -0.0226035 0.997615 -0.0652205  
     length 2.3648  
     axis 0 0 0   XYZ
    dof rx ry rz
    limits (-20.0 45.0)
           (-30.0 30.0)
           (-30.0 30.0)
  end
  begin
     id 17 
     name lclavicle
     direction 0.92109 0.381297 -0.0787716  
     length 4.0487  
     axis 0 0 0   XYZ
    dof ry rz
    limits (-20.0 10.0)
           (0.0 20.0)
  end
  begin
     id 18 
     name lhumerus
     direction 1 -4.48986e-011 3.56724e-027   
     length 4.94991   
     axis 180 -30 -90   XYZ
    dof rx ry rz
    limits (-60.0 90.0)
           (-90.0 90.0)
           (-90.0 90.0)
  end
  begin
     id 19
     name lradius
     direction 1 -4.48981e-011 8.62147e-027   
     length 2.7606   
     axis 180 -30 -90   XYZ
    dof rx
    limits (-10.0 170.0)
  end
  begin
     id 20
     name lwrist
     direction 1 -4.48989e-011 1.59799e-026   
     length 1.3803   
     axis -1.17785e-014 90 90   XYZ
    dof ry
    limits (-180.0 0.0)
 end
  begin
     id 21 
     name lhand
     direction 1 -4.48896e-011 3.19599e-026   
     length 0.843936   
     axis -2.03931e-014 90 90   XYZ
    dof rx rz
    limits (-90.0 90.0)
           (-45.0 45.0)
  end
  begin
     id 22 
     name lfingers
     direction 1 -4.48887e-011 6.39197e-026   
     length 0.680403   
     axis -4.07862e-014 90 90   XYZ
    dof rx
    limits (0.0 90.0)
  end
  begin
     id 23
     name lthumb
     direction 0.707107 -6.348e-011 0.707107   
     length 0.976926   
     axis -90 45 2.85299e-015   XYZ
    dof rx rz
    limits (-45.0 45.0)
           (-45.0 45.0)
  end
  begin
     id 24 
     name rclavicle
     direction -0.951104 0.307692 -0.026953   
     length 4.21801  
     axis 0 0 0   XYZ 
    dof ry rz
    limits (-10.0 20.0)
           (-20.0 0.0)
  end
  begin
     id 25 
     name rhumerus
     direction -1 -4.4896e-011 -1.8171e-018  
     length 4.32982   
     axis 180 30 90   XYZ
    dof rx ry rz
    limits (-90.0 60.0)
           (-90.0 90.0)
           (-90.0 90.0)
  end
  begin
     id 26 
     name rradius
     direction -1 -4.48959e-011 8.25165e-027   
     length 3.20057   
     axis 180 30 90   XYZ
    dof rx
    limits (-10.0 170.0)
  end
  begin
     id 27 
     name rwrist
     direction -1 -4.48997e-011 1.59799e-026   
     length 1.60029   
     axis -1.17785e-014 -90 -90   XYZ
    dof ry
    limits (-180.0 0.0)
  end
  begin
     id 28
     name rhand
     direction -1 -4.49023e-011 3.19599e-026   
     length 0.960433   
     axis -2.03931e-014 -90 -90   XYZ
    dof rx rz
    limits (-90.0 90.0)
           (-45.0 45.0)
  end
  begin
     id 29
     name rfingers
     direction -1 -4.48802e-011 6.39197e-026   
     length 0.774326   
     axis -4.07862e-014 -90 -90   XYZ
    dof rx
    limits (0.0 90.0)
  end
  begin
     id 30
     name rthumb
     direction -0.707107 -6.34876e-011 0.707107   
     length 1.11178   
     axis -90 -45 -2.85299e-015   XYZ
    dof rx rz
    limits (-45.0 45.0)
           (-45.0 45.0)
  end
:hierarchy
  begin
    root lhipjoint rhipjoint lowerback
    lhipjoint lfemur
    lfemur ltibia
    ltibia lfoot
    lfoot ltoes
    rhipjoint rfemur
    rfemur rtibia
    rtibia rfoot
    rfoot rtoes
    lowerback upperback
    upperback thorax
    thorax lowerneck lclavicle rclavicle
    lowerneck upperneck
    upperneck head
    lclavicle lhumerus
    lhumerus lradius
    lradius lwrist
    lwrist lhand lthumb
    lhand lfingers
    rclavicle rhumerus
    rhumerus rradius
    rradius rwrist
    rwrist rhand rthumb
    rhand rfingers
end

#!OML:ASF C:\KaitlinTest1\Natural Motions\Nikki\Session 2\Nikki.ASF
:FULLY-SPECIFIED
:DEGREES
768
root 0.636057 16.5328 5.09143 -160.172 76.2615 -168.992
lowerback -8.0174 2.58535 0.0606546
upperback -3.25728 3.60529 -2.6007
thorax 1.29195 1.8426 -2.38681
lowerneck -4.03969 -19.0519 -10.6154
upperneck 6.57168 35.8455 3.73717
head 113.293 74.663 -88.7211
rclavicle -1.92324e-014 -1.59028e-015
rhumerus 7.24362 -16.4798 -99.2355
rradius 0.88477
rwrist 43.5305
rhand -22.8033 -14.5625
rfingers 7.12502
rthumb 3.63308 -44.5113
lclavicle -1.92324e-014 -1.59028e-015
lhumerus -50.3183 22.6408 62.8232
lradius 20.7441
lwrist -33.8757
lhand -36.2978 4.20629
lfingers 7.12502
lthumb -9.39719 33.9768
rfemur -15.2028 -16.734 23.022
rtibia 25.8658
rfoot -15.3581 3.90852
rtoes -2.8625e-014
lfemur -21.6217 15.9566 -19.312
ltibia 28.9411
lfoot -8.86275 -28.2817
ltoes 1.11319e-014
769
root 0.630394 16.534 5.0875 -160.043 76.2733 -168.827
lowerback -7.94499 2.58246 0.143135
upperback -3.25896 3.59352 -2.59738
thorax 1.25444 1.83578 -2.43415
lowerneck -4.0606 -19.0436 -10.6318
upperneck 6.56223 35.842 3.71201
head 113.069 74.6546 -88.9133
rclavicle 4.71865e-014 -5.56597e-015
rhumerus 7.06768 -16.3974 -99.0631
rradius 0.917216
rwrist 43.1513
rhand -22.9585 -14.2528
rfingers 7.12502
rthumb 3.48314 -44.204
lclavicle 4.71865e-014 -5.56597e-015
lhumerus -50.313 22.5695 62.9394
lradius 20.8092
lwrist -33.751
lhand -36.26 4.30762
lfingers 7.12502
lthumb -9.36073 34.0798
rfemur -15.1755 -16.8489 23.0333
rtibia 25.8407
rfoot -15.337 4.06389
rtoes 6.44062e-014
lfemur -21.5985 15.9991 -19.2923
ltibia 28.9651
lfoot -8.91272 -28.354
ltoes 3.97569e-014
770
root 0.632985 16.5342 5.09047 -160.132 76.2783 -168.918
lowerback -8.0247 2.57402 0.03293
upperback -3.23058 3.59134 -2.58316
thorax 1.32019 1.83552 -2.35337
lowerneck -4.07538 -19.0142 -10.6787
upperneck 6.56453 35.9099 3.71805
head 113.395 74.6617 -88.6331
rclavicle -3.90457e-014 -1.98785e-014
rhumerus 6.86032 -16.3603 -98.8834
rradius 1.01325
rwrist 42.9388
rhand -23.0639 -14.0779
rfingers 7.12502
rthumb 3.38136 -44.0308
lclavicle -3.90457e-014 -1.98785e-014
lhumerus -50.2656 22.7259 62.8935
lradius 20.7646
lwrist -33.9002
lhand -36.3195 4.24725
lfingers 7.12502
lthumb -9.41807 34.0168
rfemur -15.1525 -16.6526 23.0345
rtibia 25.8289
rfoot -15.3578 3.83879
rtoes 4.85035e-014
lfemur -21.6045 15.9699 -19.2871
ltibia 28.9794
lfoot -8.92748 -28.3019
ltoes 6.36111e-015
771
root 0.628176 16.534 5.08773 -159.975 76.2808 -168.694
lowerback -7.92953 2.57628 0.115788
upperback -3.22967 3.58583 -2.58028
thorax 1.27311 1.83171 -2.40178
lowerneck -4.11499 -18.9552 -10.7202
upperneck 6.62144 36.2156 3.78941
head 114.574 74.6094 -87.6078
rclavicle -1.09332e-015 4.05521e-014
rhumerus 6.60136 -16.3057 -98.7412
rradius 1.14585
rwrist 42.603
rhand -23.0346 -13.8385
rfingers 7.12502
rthumb 3.40967 -43.7909
lclavicle -1.09332e-015 4.05521e-014
lhumerus -50.3014 22.9874 62.68
lradius 20.7645
lwrist -34.287
lhand -36.2273 4.09337
lfingers 7.12502
lthumb -9.32911 33.8669
rfemur -15.0866 -16.7462 23.0595
rtibia 25.8136
rfoot -15.3634 3.941
rtoes -1.03368e-014
lfemur -21.5474 16.0143 -19.2327
ltibia 28.9959
lfoot -8.94973 -28.3382
ltoes 2.38542e-014
772
root 0.626284 16.5345 5.08681 -160.101 76.3065 -168.808
lowerback -7.92126 2.56989 0.0761504
upperback -3.23612 3.581 -2.59767
thorax 1.26042 1.82963 -2.39859
lowerneck -4.07396 -19.0006 -10.678
upperneck 6.58646 35.9833 3.72103
head 113.289 74.64 -88.7365
rclavicle 3.54582e-014 -3.10104e-014
rhumerus 6.31376 -16.2625 -98.5798
rradius 1.26874
rwrist 42.3071
rhand -23.0475 -13.7224
rfingers 7.12502
rthumb 3.39727 -43.6751
lclavicle 3.54582e-014 -3.10104e-014
lhumerus -50.2277 22.9814 62.7565
lradius 20.7526
lwrist -34.4023
lhand -36.2007 4.1571
lfingers 7.12502
lthumb -9.30344 33.9318
rfemur -15.0738 -16.775 23.0138
rtibia 25.8077
rfoot -15.3606 3.98039
rtoes -6.67916e-014
lfemur -21.5379 16.0695 -19.2801
ltibia 29.0063
lfoot -8.93284 -28.3885
ltoes 3.49861e-014
773
root 0.62568 16.5342 5.08826 -160.024 76.3095 -168.732
lowerback -7.96953 2.55315 0.0334431
upperback -3.22942 3.56232 -2.58308
thorax 1.28973 1.8207 -2.35889
lowerneck -4.09254 -18.9832 -10.6762
upperneck 6.59477 36.0374 3.72711
head 113.244 74.6411 -88.7975
rclavicle -5.63803e-014 4.53229e-014
rhumerus 6.04165 -16.1921 -98.4319
rradius 1.37159
rwrist 42.1352
rhand -23.0786 -13.4978
rfingers 7.12502
rthumb 3.36722 -43.451
lclavicle -5.63803e-014 4.53229e-014
lhumerus -50.1474 23.0911 62.7448
lradius 20.7064
lwrist -34.5257
lhand -36.2893 4.26539
lfingers 7.12502
lthumb -9.38894 34.0363
rfemur -15.0693 -16.7188 23.0349
rtibia 25.7961
rfoot -15.3551 3.92224
rtoes -7.15625e-015
lfemur -21.5573 16.1506 -19.2693
ltibia 29.0201
lfoot -8.95422 -28.4757
ltoes -1.59028e-014
774
root 0.623874 16.5336 5.08906 -159.956 76.2968 -168.67
lowerback -8.00929 2.53079 0.0124735
upperback -3.22224 3.53473 -2.57722
thorax 1.31632 1.80717 -2.34162
lowerneck -4.13746 -18.9559 -10.6766
upperneck 6.62894 36.2264 3.7668
head 113.889 74.5866 -88.2261
rclavicle -2.78174e-014 3.65764e-014
rhumerus 5.7397 -16.1189 -98.3201
rradius 1.53835
rwrist 41.8126
rhand -23.2566 -13.3368
rfingers 7.12502
rthumb 3.19528 -43.2926
lclavicle -2.78174e-014 3.65764e-014
lhumerus -50.0408 23.0077 62.9163
lradius 20.7654
lwrist -34.2628
lhand -36.2968 4.03311
lfingers 7.12502
lthumb -9.39621 33.8037
rfemur -15.0869 -16.6821 23.0592
rtibia 25.807
rfoot -15.3319 3.88412
rtoes -5.32743e-014
lfemur -21.5783 16.1989 -19.263
ltibia 29.0162
lfoot -8.91825 -28.5232
ltoes 3.97569e-014
775
root 0.623093 16.5329 5.08987 -159.883 76.3134 -168.605
lowerback -8.05922 2.50997 -0.0348072
upperback -3.22535 3.51152 -2.56879
thorax 1.3364 1.79609 -2.30642
lowerneck -4.1241 -18.9348 -10.666
upperneck 6.62125 36.1826 3.75852
head 113.481 74.6343 -88.6179
rclavicle 2.26552e-014 2.22639e-014
rhumerus 5.49733 -16.0345 -98.1612
rradius 1.55074
rwrist 41.6194
rhand -23.1902 -13.0595
rfingers 7.12502
rthumb 3.25944 -43.0143
lclavicle 2.26552e-014 2.22639e-014
lhumerus -49.9534 23.0195 62.9862
lradius 20.8018
lwrist -34.1558
lhand -36.2861 3.95025
lfingers 7.12502
lthumb -9.3859 33.7213
rfemur -15.1043 -16.629 23.0762
rtibia 25.8191
rfoot -15.3154 3.84899
rtoes -4.21423e-014
lfemur -21.5974 16.2441 -19.2565
ltibia 29.0221
lfoot -8.94285 -28.5441
ltoes 1.11319e-014
776
root 0.620871 16.5334 5.08866 -159.92 76.3331 -168.644
lowerback -8.08254 2.48397 -0.0895906
upperback -3.23492 3.48202 -2.57056
thorax 1.33512 1.78191 -2.27959
lowerneck -4.09997 -18.9209 -10.643
upperneck 6.62007 36.1363 3.7488
head 112.972 74.6685 -89.0927
rclavicle 4.15708e-014 1.35174e-014
rhumerus 5.08193 -15.9464 -98.0238
rradius 1.76513
rwrist 41.3914
rhand -23.1975 -12.7891
rfingers 7.12502
rthumb 3.25232 -42.744
lclavicle 4.15708e-014 1.35174e-014
lhumerus -49.814 22.7069 63.3218
lradius 20.8871
lwrist -33.7593
lhand -36.2599 4.12179
lfingers 7.12502
lthumb -9.36058 33.894
rfemur -15.1219 -16.6652 23.0582
rtibia 25.8225
rfoot -15.3008 3.90686
rtoes -4.13472e-014
lfemur -21.6002 16.2647 -19.2792
ltibia 29.0369
lfoot -8.95496 -28.5655
ltoes -3.02153e-014
777
root 0.620544 16.5319 5.08618 -159.895 76.3532 -168.544
lowerback -8.08723 2.4772 -0.0810258
upperback -3.20302 3.47172 -2.56761
thorax 1.37054 1.77639 -2.28117
lowerneck -4.07034 -18.9185 -10.6261
upperneck 6.59824 36.0068 3.71582
head 112.161 74.7229 -89.8355
rclavicle 3.70858e-014 -2.54444e-014
rhumerus 4.83486 -15.8671 -97.9403
rradius 1.77062
rwrist 41.2215
rhand -23.203 -12.6857
rfingers 7.12502
rthumb 3.24706 -42.6407
lclavicle 3.70858e-014 -2.54444e-014
lhumerus -49.617 22.2925 63.7741
lradius 21.0065
lwrist -33.1482
lhand -36.3119 4.27068
lfingers 7.12502
lthumb -9.41071 34.0406
rfemur -15.0456 -16.6785 23.0433
rtibia 25.8249
rfoot -15.3122 3.92844
rtoes 4.53229e-014
lfemur -21.5232 16.3128 -19.2541
ltibia 29.0559
lfoot -8.9661 -28.5583
ltoes 2.54444e-014
778
root 0.621106 16.5323 5.08644 -159.833 76.3573 -168.438
lowerback -8.0887 2.46416 -0.108491
upperback -3.1982 3.4561 -2.55822
thorax 1.37355 1.76865 -2.25739
lowerneck -4.0756 -18.9205 -10.6006
upperneck 6.6116 36.0373 3.71764
head 111.896 74.7097 -90.0878
rclavicle -2.0568e-014 3.97569e-015
rhumerus 4.5027 -15.809 -97.7565
rradius 1.84328
rwrist 40.9284
rhand -23.1874 -12.4474
rfingers 7.12502
rthumb 3.26208 -42.4022
lclavicle -2.0568e-014 3.97569e-015
lhumerus -49.5125 22.2285 63.8914
lradius 21.049
lwrist -33.0428
lhand -36.3697 4.20159
lfingers 7.12502
lthumb -9.46655 33.969
rfemur -14.9956 -16.6516 23.0664
rtibia 25.8284
rfoot -15.3393 3.88796
rtoes 7.95139e-015
lfemur -21.4899 16.3484 -19.2145
ltibia 29.0672
lfoot -8.97884 -28.5972
ltoes -6.36111e-015
779
root 0.618611 16.532 5.08594 -159.774 76.3765 -168.368
lowerback -8.11405 2.44715 -0.120006
upperback -3.19239 3.43484 -2.55793
thorax 1.39202 1.75815 -2.25135
lowerneck -4.14368 -18.8979 -10.5773
upperneck 6.66322 36.2956 3.77132
head 112.569 74.6304 -89.5025
rclavicle -3.9993e-014 -1.90833e-014
rhumerus 4.18185 -15.7177 -97.667
rradius 1.98674
rwrist 40.6854
rhand -23.1358 -12.4686
rfingers 7.12502
rthumb 3.31193 -42.4226
lclavicle -3.9993e-014 -1.90833e-014
lhumerus -49.4265 22.2621 63.936
lradius 21.0797
lwrist -33.0307
lhand -36.4848 4.17803
lfingers 7.12502
lthumb -9.57755 33.9403
rfemur -14.9979 -16.6312 23.0709
rtibia 25.8319
rfoot -15.3775 3.89214
rtoes -5.00937e-014
lfemur -21.4889 16.368 -19.2069
ltibia 29.0805
lfoot -8.93891 -28.5545
ltoes -3.02153e-014
780
root 0.622303 16.5318 5.09078 -159.867 76.4211 -168.459
lowerback -8.20322 2.43476 -0.276781
upperback -3.16924 3.43135 -2.52874
thorax 1.45429 1.75727 -2.12916
lowerneck -4.21018 -18.8966 -10.5928
upperneck 6.67669 36.427 3.77221
head 112.955 74.5525 -89.133
rclavicle -1.11257e-014 -2.38542e-014
rhumerus 3.90656 -15.6376 -97.4814
rradius 2.01623
rwrist 40.5379
rhand -23.1335 -12.4285
rfingers 7.12502
rthumb 3.31421 -42.3825
lclavicle -1.11257e-014 -2.38542e-014
lhumerus -49.2791 22.1221 64.2001
lradius 21.1367
lwrist -32.7693
lhand -36.5096 4.07383
lfingers 7.12502
lthumb -9.60154 33.835
rfemur -14.981 -16.3214 23.0383
rtibia 25.8328
rfoot -15.3148 3.62363
rtoes 2.38542e-014
lfemur -21.4945 16.4025 -19.2167
ltibia 29.0821
lfoot -8.94826 -28.5957
ltoes 2.54444e-014
781
root 0.619782 16.5307 5.09117 -159.752 76.4522 -168.356
lowerback -8.23604 2.40057 -0.319139
upperback -3.18985 3.39008 -2.5197
thorax 1.44665 1.73722 -2.09922
lowerneck -4.26099 -18.8301 -10.5788
upperneck 6.74588 36.7505 3.85605
head 113.799 74.5103 -88.4358
rclavicle 2.10463e-014 3.18055e-015
rhumerus 3.63958 -15.504 -97.3839
rradius 1.93751
rwrist 40.2239
rhand -23.2767 -12.2513
rfingers 7.12502
rthumb 3.17589 -42.2074
lclavicle 2.10463e-014 3.18055e-015
lhumerus -49.2176 21.9573 64.3927
lradius 21.2974
lwrist -32.4776
lhand -36.417 4.22309
lfingers 7.12502
lthumb -9.51218 33.9884
rfemur -15.017 -16.2693 23.0581
rtibia 25.8502
rfoot -15.3089 3.60674
rtoes 0
lfemur -21.508 16.3962 -19.2022
ltibia 29.0774
lfoot -8.95863 -28.5652
ltoes 1.27222e-014
